<svg id="Layer_1" data-name="Layer 1" xmlns="http://www.w3.org/2000/svg" xmlns:xlink="http://www.w3.org/1999/xlink" viewBox="0 0 595.28 841.89"><defs><style>.cls-1,.cls-2{fill:none;}.cls-2{stroke:#231f20;stroke-miterlimit:10;stroke-width:0.75px;}.cls-3{fill:#fdfeff;}.cls-4{opacity:0.05;fill:url(#New_Pattern_2);}</style><pattern id="New_Pattern_2" data-name="New Pattern 2" width="103.23" height="108.32" patternUnits="userSpaceOnUse" viewBox="0 0 103.23 108.32"><rect class="cls-1" width="103.23" height="108.32"/><polygon class="cls-2" points="20.63 -35.73 -20.63 -35.73 -41.26 0 -20.63 35.73 20.63 35.73 41.26 0 20.63 -35.73"/><polygon class="cls-2" points="10.36 -17.94 -10.36 -17.94 -20.72 0 -15.48 9.07 -10.36 17.94 10.36 17.94 20.72 0 10.36 -17.94"/><line class="cls-2" x1="17.97" y1="-4.76" x2="30.9" y2="17.94"/><line class="cls-2" x1="11.14" y1="16.59" x2="0.74" y2="35.73"/><line class="cls-2" x1="-10.36" y1="-17.94" x2="10.36" y2="17.94"/><polygon class="cls-2" points="123.86 -35.73 82.6 -35.73 61.97 0 82.6 35.73 123.86 35.73 144.49 0 123.86 -35.73"/><polygon class="cls-2" points="113.59 -17.94 92.87 -17.94 82.51 0 87.75 9.07 92.87 17.94 113.59 17.94 123.95 0 113.59 -17.94"/><line class="cls-2" x1="72.26" y1="-17.82" x2="92.87" y2="17.94"/><line class="cls-2" x1="95.24" y1="17.94" x2="72.26" y2="17.94"/><line class="cls-2" x1="92.87" y1="-17.94" x2="113.59" y2="17.94"/><polygon class="cls-2" points="72.24 18.43 30.98 18.43 10.35 54.16 30.98 89.89 72.24 89.89 92.87 54.16 72.24 18.43"/><polygon class="cls-2" points="61.97 36.22 41.26 36.22 30.9 54.16 36.13 63.23 41.26 72.11 61.97 72.11 72.33 54.16 61.97 36.22"/><line class="cls-2" x1="20.64" y1="36.34" x2="41.25" y2="72.11"/><line class="cls-2" x1="40.42" y1="37.66" x2="51.09" y2="18.25"/><line class="cls-2" x1="60.81" y1="36.22" x2="82.16" y2="36.22"/><line class="cls-2" x1="69.58" y1="49.4" x2="82.52" y2="72.11"/><line class="cls-2" x1="62.76" y1="70.75" x2="52.35" y2="89.9"/><line class="cls-2" x1="43.62" y1="72.11" x2="20.64" y2="72.11"/><line class="cls-2" x1="41.25" y1="36.22" x2="61.97" y2="72.11"/><polygon class="cls-2" points="20.63 72.59 -20.63 72.59 -41.26 108.32 -20.63 144.06 20.63 144.06 41.26 108.32 20.63 72.59"/><polygon class="cls-2" points="10.36 90.38 -10.36 90.38 -20.72 108.32 -15.48 117.39 -10.36 126.27 10.36 126.27 20.72 108.32 10.36 90.38"/><line class="cls-2" x1="9.2" y1="90.38" x2="30.55" y2="90.38"/><line class="cls-2" x1="17.97" y1="103.56" x2="30.9" y2="126.27"/><line class="cls-2" x1="-10.36" y1="90.38" x2="10.36" y2="126.27"/><polygon class="cls-2" points="123.86 72.59 82.6 72.59 61.97 108.32 82.6 144.06 123.86 144.06 144.49 108.32 123.86 72.59"/><polygon class="cls-2" points="113.59 90.38 92.87 90.38 82.51 108.32 87.75 117.39 92.87 126.27 113.59 126.27 123.95 108.32 113.59 90.38"/><line class="cls-2" x1="72.26" y1="90.51" x2="92.87" y2="126.27"/><line class="cls-2" x1="92.04" y1="91.82" x2="102.71" y2="72.41"/><line class="cls-2" x1="92.87" y1="90.38" x2="113.59" y2="126.27"/></pattern></defs><rect class="cls-3" width="595.28" height="841.89"/><rect class="cls-4" width="595.28" height="841.89"/></svg>